<?xml version="1.0" standalone="no"?><!DOCTYPE svg PUBLIC "-//W3C//DTD SVG 1.1//EN" "http://www.w3.org/Graphics/SVG/1.1/DTD/svg11.dtd"><svg class="icon" width="200px" height="200.00px" viewBox="0 0 1024 1024" version="1.1" xmlns="http://www.w3.org/2000/svg"><path d="M349.01792327 744.84789339a78.78314971 78.78314971 0 0 1 37.16967933 8.54864934 268.88704151 268.88704151 0 0 0 40.87911523 17.09729868 77.31443939 77.31443939 0 0 1 54.26697922 74.32052918c0 14.17870753 11.48607116 25.64594924 25.64594802 25.64594923h8.92524225a25.64594924 25.64594924 0 0 0 25.26935632-25.64594923 77.29560993 77.29560993 0 0 1 54.26697921-74.32052918 270.2616045 270.2616045 0 0 0 40.87911522-17.09729868 77.31443939 77.31443939 0 0 1 90.32571047 14.12221792 25.64594924 25.64594924 0 0 0 37.15084864 0l6.32675443-6.32675319a25.64594924 25.64594924 0 0 0 0-37.16967933 77.67220163 77.67220163 0 0 1-14.12221915-90.306881c6.81632412-13.14307854 12.52170016-26.8133857 17.09729989-40.8979447a77.31443939 77.31443939 0 0 1 74.33935865-54.26697799c14.15987807 0 25.64594924-11.48607116 25.64594922-25.64594924v-6.30792373c0-14.0280706-11.26011517-25.43882271-25.28818698-25.64594924a77.31443939 77.31443939 0 0 1-74.32052797-54.26697921 272.59647742 272.59647742 0 0 0-17.09729989-40.87911522 77.31443939 77.31443939 0 0 1 10.39395255-91.43665733 25.64594924 25.64594924 0 0 0 0-37.16967932l-6.30792373-6.30792496a26.02254094 26.02254094 0 0 0-37.16967932 0 77.29560993 77.29560993 0 0 1-90.32571047 14.12221914 267.21120468 267.21120468 0 0 0-40.86028576-17.09729989 77.31443939 77.31443939 0 0 1-54.28580747-74.33935865c0-14.0280706-11.24128571-25.43882271-25.26935632-25.64594802h-5.95016149c-14.15987807 0-25.64594924 11.48607116-25.64594924 25.64594802a77.31443939 77.31443939 0 0 1-54.26697921 74.33935865c-14.06572954 4.55676906-27.73603669 10.28097456-40.86028576 17.09729989a77.29560993 77.29560993 0 0 1-90.32570926-13.74562623 26.02254094 26.02254094 0 0 0-37.16967933 0l-6.32675441 6.30792375a25.64594924 25.64594924 0 0 0 0 37.16967933 77.31443939 77.31443939 0 0 1 14.12221914 90.306881c-6.77866518 13.161908-12.5028707 26.83221516-17.0972999 40.89794468a77.29560993 77.29560993 0 0 1-74.33935864 54.24814855c-14.15987807 0-25.64594924 11.48607116-25.64594801 25.66477868v8.52981989c0 14.17870753 11.48607116 25.64594924 25.64594801 25.64594922a77.31443939 77.31443939 0 0 1 74.33935864 54.26697922c4.57559852 14.084559 10.29980524 27.75486737 17.0972999 40.87911523a77.31443939 77.31443939 0 0 1-13.74562622 90.32570924 25.64594924 25.64594924 0 0 0 0 37.16967933l6.30792373 6.32675442a25.64594924 25.64594924 0 0 0 37.16967932 0 76.95667595 76.95667595 0 0 1 53.15603114-24.15840825m165.39942428 177.28091659h-7.81429418a77.67220163 77.67220163 0 0 1-77.67220286-77.67220163c0-11.10947825-7.24940542-20.90088311-17.8504845-24.15840946a325.39474512 325.39474512 0 0 1-48.69340941-20.07237943 25.25052686 25.25052686 0 0 0-29.71314738 4.46262052 78.06762401 78.06762401 0 0 1-111.50903797 0l-6.32675442-6.32675321a77.67220163 77.67220163 0 0 1 0-111.50903796 25.28818578 25.28818578 0 0 0 4.46262174-29.73197806 326.59984172 326.59984172 0 0 1-20.07238064-49.05117165 25.26935632 25.26935632 0 0 0-24.15840826-17.8504845A78.06762401 78.06762401 0 0 1 97.75541028 514.39211498v-7.79546351a77.69103231 77.69103231 0 0 1 77.69103231-78.80198039c11.10947825 0 20.90088311-7.23057596 24.15840825-17.83165504 5.36644327-16.8713439 12.06978939-33.27194636 20.07237943-49.07000112a25.28818578 25.28818578 0 0 0-4.46262052-29.73197805 78.04879455 78.04879455 0 0 1 0-111.4902085l6.30792374-6.3267532a79.53633553 79.53633553 0 0 1 111.50903797 0 25.26935632 25.26935632 0 0 0 29.75080752 4.46262052c15.23316599-7.28706435 31.0123925-13.36903331 47.18704017-18.20824674 10.60107909-3.27635459 17.85048451-13.06775947 17.85048329-24.15840826A78.04879455 78.04879455 0 0 1 506.22646045 97.74900838h9.30183517a77.69103231 77.69103231 0 0 1 76.56125355 77.69103231c0 11.09064878 7.23057596 20.90088311 17.85048452 24.15840826 16.85251444 5.34761381 33.27194636 12.05095993 49.05117286 20.07237942 9.81023434 5.19697689 21.88002372 3.3893326 29.7508063-4.46262052a79.53633553 79.53633553 0 0 1 111.47137904 0l6.32675442 6.30792374a78.04879455 78.04879455 0 0 1 1.12977753 110.37926044l-1.12977753 1.12977753a25.26935632 25.26935632 0 0 0-4.44379227 29.75080752c8.02142071 15.76039583 14.7435963 32.1609995 20.07238065 49.05117286 3.25752513 10.60107909 13.04892999 17.83165505 24.15840824 17.83165383a77.67220163 77.67220163 0 0 1 75.80806895 76.9378477v8.54864933a77.67220163 77.67220163 0 0 1-77.67220163 77.67220163c-11.10947825 0-20.90088311 7.24940542-24.15840826 17.85048451a319.21862883 319.21862883 0 0 1-20.07238064 49.05117287 25.28818578 25.28818578 0 0 0 4.46262173 29.7508063 77.69103231 77.69103231 0 0 1 0 111.4902085l-6.32675441 6.32675442a77.67220163 77.67220163 0 0 1-111.4902085 0 25.28818578 25.28818578 0 0 0-29.7508063-4.46262173c-15.77922529 8.00259004-32.19865842 14.70593738-49.05117287 20.07238064a25.26935632 25.26935632 0 0 0-17.8504845 24.15840824 78.04879455 78.04879455 0 0 1-75.80806895 75.0737138" fill="#8A2BE2" /><path d="M509.93589635 417.40071853a92.9241983 92.9241983 0 1 0 92.92419831 92.90536884 92.9241983 92.9241983 0 0 0-92.52877593-93.28196176h-0.37659292v0.37659292z m0 237.85581955a144.95045191 144.95045191 0 1 1 144.98811085-144.95045071 145.32704362 145.32704362 0 0 1-144.98811085 144.95045071z" fill="#C0ACF3" /><path d="M509.93589635 417.40071853a92.9241983 92.9241983 0 1 0 92.92419831 92.90536884 92.9241983 92.9241983 0 0 0-92.52877593-93.28196176h-0.37659292v0.37659292z" fill="#8A2BE2" /></svg>