<?xml version="1.0" standalone="no"?><!DOCTYPE svg PUBLIC "-//W3C//DTD SVG 1.1//EN" "http://www.w3.org/Graphics/SVG/1.1/DTD/svg11.dtd"><svg class="icon" width="200px" height="200.00px" viewBox="0 0 1024 1024" version="1.1" xmlns="http://www.w3.org/2000/svg"><path d="M0 256m102.4 0l819.2 0q102.4 0 102.4 102.4l0 563.2q0 102.4-102.4 102.4l-819.2 0q-102.4 0-102.4-102.4l0-563.2q0-102.4 102.4-102.4Z" fill="#D24425" /><path d="M102.4 1024a102.4 102.4 0 0 1-102.4-102.4V102.4a102.4 102.4 0 0 1 102.4-102.4h665.6a102.4 102.4 0 0 1 102.4 102.4v870.4a51.2 51.2 0 0 0 51.2 51.2H102.4z" fill="#F67138" /><path d="M153.6 486.4V128h102.4v51.2H204.8v256h51.2v51.2H153.6zM742.4 486.4V128h-102.4v51.2h51.2v256h-51.2v51.2h102.4z" fill="#FFDCB7" fill-opacity=".6" /><path d="M319.744 384c10.9056 0 19.84-3.584 27.7504-10.6752 6.9376-7.1168 10.9056-16.7936 10.9056-27.9808 0-11.1872-3.968-20.352-10.9056-27.4688A38.8096 38.8096 0 0 0 319.744 307.2c-10.88 0-19.8144 3.584-26.752 10.6752-7.936 7.1168-11.392 16.2816-11.392 27.4688 0 11.1872 3.456 20.352 11.392 27.4688 6.9376 7.1168 15.872 11.1872 26.752 11.1872zM447.744 384c10.9056 0 19.84-3.584 27.7504-10.6752 6.9376-7.1168 10.9056-16.7936 10.9056-27.9808 0-11.1872-3.968-20.352-10.9056-27.4688A38.8096 38.8096 0 0 0 447.744 307.2c-10.88 0-19.8144 3.584-26.752 10.6752-7.936 7.1168-11.392 16.2816-11.392 27.4688 0 11.1872 3.456 20.352 11.392 27.4688 6.9376 7.1168 15.872 11.1872 26.752 11.1872zM575.744 384c10.9056 0 19.84-3.584 27.7504-10.6752 6.9376-7.1168 10.9056-16.7936 10.9056-27.9808 0-11.1872-3.968-20.352-10.9056-27.4688A38.8096 38.8096 0 0 0 575.744 307.2c-10.88 0-19.8144 3.584-26.752 10.6752-7.936 7.1168-11.392 16.2816-11.392 27.4688 0 11.1872 3.456 20.352 11.392 27.4688 6.9376 7.1168 15.872 11.1872 26.752 11.1872z" fill="#FFDCB7" /><path d="M202.9568 896v-84.3776L272.384 665.6H224.4352l-23.04 56.064c-6.528 17.1008-13.3888 33.28-20.5568 51.0464h-1.2288c-7.168-17.7408-13.3888-33.9456-19.9424-51.072L136.6272 665.6H87.7568l69.12 146.0224V896h46.08z m81.152 0l16.2048-59.136h74.7264l16.1792 59.136h48.256l-74.0864-230.4h-54.1952l-73.7792 230.4h46.6944z m80.9472-94.976h-54.784l6.8352-25.216c6.8608-23.9616 13.7216-50.1248 19.6352-75.3408h1.2288c6.8608 24.9088 13.0816 51.3792 20.224 75.3408l6.8608 25.2416zM482.048 896v-96.2048c0-21.7856-3.7632-53.8624-5.9392-75.6736h1.2544l18.3552 54.1952 35.84 96.8192h26.4448l35.4816-96.8192 18.688-54.1952h1.2544c-2.176 21.8112-5.632 53.888-5.632 75.6736V896h42.0608v-230.4H598.784l-38.2976 107.7248c-4.9664 14.336-9.0112 29.5936-14.0032 44.544h-1.536c-4.6848-14.9504-9.0624-30.208-14.0288-44.544L491.6736 665.6h-51.0464v230.4h41.3952z m337.9968 0v-38.6048h-93.3888V665.6h-46.08v230.4h139.4688z" fill="#FFFFFF" /></svg>