<svg xmlns="http://www.w3.org/2000/svg" width="1024" height="1024"><path fill="#FFBF04" d="M457.646 412.824c3.4-18.512 23.594-14.76 24.59 3.602 3.894.406 19.324.834 22.526-.612l.4-1.542c4.004-19.672 39.596-12.736 56.88-12.714l113.156.008c48.568.024 64.42 10.78 65.194 59.568.168 10.562 1.724 21.92-10.488 25.522.282 9.932.482 24.43 0 34.206 9.344-.476 17.596 1.8 24.632 8.184 20.984 19.04-.886 40.606-11.698 26.216-1.712-2.28-10.556-18.554-14.12-6.276 2.018 4.736 2.136 57.904 1.186 68.198 15.066 3.92 13.396 21.046 10.11 33.368-8.668 32.498-37.678 34.074-65.124 33.91l.046 38.128c.016 11.114 2.95 22.174-8.848 28.198-2.644.33-4.99.538-7.644 0-8.656-5.394-16.006-15.232-23.13-22.554l-42.412-43.772-366.712-.046c-34.572-.068-81.087 5.304-86.266-43.686-1.057-10.002.065-20.198.044-30.232-.03-13.94-6.718-43.628 14.053-44.474-.155-5.4 1.773-26.998-.374-30.026l-1.585-.22q-.301-.02-.601-.054t-.599-.084q-.298-.048-.593-.112-.295-.062-.587-.14t-.58-.168q-.288-.092-.571-.196-.284-.106-.561-.224-.278-.12-.55-.252t-.537-.276q-.265-.146-.522-.302-.258-.158-.508-.328t-.491-.352q-.241-.18-.474-.374t-.455-.398-.435-.418-.414-.44q-.202-.224-.393-.458t-.37-.476q-.18-.244-.347-.496-.168-.25-.323-.51t-.297-.526-.272-.54q-.13-.272-.245-.55-.116-.28-.219-.564-.102-.284-.19-.572-.09-.29-.164-.582-.075-.294-.135-.59t-.106-.594-.078-.598-.048-.602-.02-.604.01-.604q.013-.302.04-.602.026-.302.067-.6.042-.3.097-.596.056-.298.126-.592t.154-.584.182-.576.21-.566q.111-.28.236-.556.125-.274.263-.542.139-.27.29-.53.15-.262.314-.516.163-.254.339-.5.175-.246.363-.484.187-.236.385-.464.199-.228.408-.446t.428-.426q.22-.206.449-.404.229-.196.467-.382.239-.184.486-.358t.502-.336.518-.31q.263-.15.532-.286.27-.136.546-.26.276-.122.557-.232t.568-.206q.287-.094.577-.176.291-.082.585-.15.295-.068.592-.122t.597-.092q.3-.04.6-.064.301-.024.603-.034t.604-.006c-.85-9.034-.42-17.474.949-26.416-19.533-.274-16.217-29.584-14.089-42.926 7.191-45.09 49.614-39.878 82.516-39.88l153.944-.02c15.624.002 53.244-6.532 57.35 11.27.562 6.95 22.288 3.992 23.698 3.408z"/><path fill="#FEE05D" d="M457.646 412.824c3.4-18.512 23.594-14.76 24.59 3.602 3.894.406 19.324.834 22.526-.612l.4-1.542c4.004-19.672 39.596-12.736 56.88-12.714l113.156.008c48.568.024 64.42 10.78 65.194 59.568.168 10.562 1.724 21.92-10.488 25.522-22.058-2.298-14.724-28.644-14.44-47.112-2.426.76-64.006-.002-72.512-.002l-418.876.022c-5.43.01-11.09.362-16.486-.02-22.643.672-31.518 13.482-42.96 29.162-.204 8.786-2.349 12.694-10.61 15.674-19.532-.274-16.216-29.584-14.088-42.926 7.191-45.09 49.614-39.878 82.516-39.88l153.944-.02c15.624.002 53.244-6.532 57.35 11.27.562 6.95 22.288 3.992 23.698 3.408z"/><path d="M154.02 484.38c-19.532-.274-16.216-29.584-14.088-42.926 7.191-45.09 49.614-39.878 82.516-39.88l153.944-.02c15.624.002 53.244-6.532 57.35 11.27-.922 18.574-22.722 14.014-35.578 13.976l-190.574-.042c-.422 4.314-.35 8.466 0 12.786-22.643.672-31.518 13.482-42.96 29.162-.204 8.786-2.349 12.694-10.61 15.674"/><path fill="#fff" d="M164.63 468.706c-.133-40.58 2.195-41.992 42.96-41.948-.422 4.314-.35 8.466 0 12.786-22.643.672-31.518 13.482-42.96 29.162"/><path d="M505.162 414.272c4.004-19.672 39.596-12.736 56.88-12.714l113.156.008c48.568.024 64.42 10.78 65.194 59.568.168 10.562 1.724 21.92-10.488 25.522-22.058-2.298-14.724-28.644-14.44-47.112-11.798-18.444-26.644-12.696-45.648-12.77l-100.796.004c-16.214 0-61.142 7.524-63.858-12.506"/><path d="M457.646 412.824c3.4-18.512 23.594-14.76 24.59 3.602-4.364 16.994-23.03 15.312-24.59-3.602"/><path d="m154.02 566.024.676.25c20.394 7.74 4.176 56.308 11.298 77.57 7.647 22.83 42.79 16.146 62.678 16.128l302.138-.008c87.64-.036 58.7-11.572 119.652 47.676-.026-9.42-1.208-30.63.682-38.688 5.488-23.396 64.036 9.426 66.22-29.904.628-11.306-1.504-19.716 12.54-21.864 15.066 3.92 13.396 21.046 10.11 33.368-8.668 32.498-37.678 34.074-65.124 33.91l.046 38.128c.016 11.114 2.95 22.174-8.848 28.198-2.644.33-4.99.538-7.644 0-8.656-5.394-16.006-15.232-23.13-22.554l-42.412-43.772-366.712-.046c-34.572-.068-81.087 5.304-86.266-43.686-1.057-10.002.065-20.198.044-30.232-.03-13.94-6.718-43.628 14.053-44.474"/><path d="M729.904 520.862c9.344-.476 17.596 1.8 24.632 8.184 20.984 19.04-.886 40.606-11.698 26.216-1.712-2.28-10.556-18.554-14.12-6.276-5.608 13.872-21.526 15.99-24.448.744-3.04-15.872 11.902-26.48 25.634-28.868"/><path d="M153.072 510.796q.416.006.83.04.415.034.827.096.411.06.817.15.407.088.806.204.4.114.791.256t.772.31q.38.166.75.36.369.192.724.408t.695.456.664.5q.323.262.628.544.306.284.592.586.285.302.55.622t.509.658.464.69q.22.354.416.72.197.366.368.746.172.378.318.768t.266.788.213.804.159.816q.066.412.104.826.039.414.05.83.01.416-.007.83-.016.416-.06.83-.045.414-.117.824t-.17.814-.225.8-.277.784-.328.764-.379.74-.427.714-.473.684-.518.65-.56.614-.6.576q-.309.28-.636.536t-.67.492q-.344.234-.702.446-.359.21-.73.398-.372.186-.755.348t-.776.298-.795.246-.809.192q-.407.084-.82.14-.412.054-.827.082t-.83.028q-.417.002-.832-.026-.301-.02-.601-.054t-.599-.084q-.298-.048-.593-.112-.295-.062-.587-.14t-.58-.168q-.288-.092-.571-.196-.284-.106-.561-.224-.278-.12-.55-.252t-.537-.276q-.265-.146-.522-.302-.258-.158-.508-.328t-.491-.352q-.241-.18-.474-.374t-.455-.398-.435-.418-.414-.44q-.202-.224-.393-.458t-.37-.476q-.18-.244-.347-.496-.168-.25-.323-.51t-.297-.526-.272-.54q-.13-.272-.245-.55-.116-.28-.219-.564-.102-.284-.19-.572-.09-.29-.164-.582-.075-.294-.135-.59t-.106-.594-.078-.598-.048-.602-.02-.604.01-.604q.013-.302.04-.602.026-.302.067-.6.042-.3.097-.596.056-.298.126-.592t.154-.584.182-.576.21-.566q.111-.28.236-.556.125-.274.263-.542.139-.27.29-.53.15-.262.314-.516.163-.254.339-.5.175-.246.363-.484.187-.236.385-.464.199-.228.408-.446t.428-.426q.22-.206.449-.404.229-.196.467-.382.239-.184.486-.358t.502-.336.518-.31q.263-.15.532-.286.27-.136.546-.26.276-.122.557-.232t.568-.206q.287-.094.577-.176.291-.082.585-.15.295-.068.592-.122t.597-.092q.3-.04.6-.064.301-.024.603-.034t.604-.006"/><path d="M574.94 475.516c22.38 1.108 48.46-4.346 65.022 14.906 15.29 17.776 10.212 41.878-6.678 56.512 4.272 8.386 9.728 16.148 14.982 23.922 8.122 12.016-6 38.558-25.194 6.354-4.328-6.894-8.806-13.674-13.5-20.324h-20.236c.03 9.314 1.526 34.008-1.482 41.296-4.188 10.144-19.316 10.574-22.796.02-2.046-6.204-1.748-93.634-.91-108.094.446-7.708 2.96-12.24 10.792-14.592"/><path fill="#FFBF04" d="M589.336 501.578c11.914-.124 34.032-3.032 35.286 14.176.326 4.49-1.77 8.07-4.592 11.354-8.08 6.506-20.996 4.712-30.694 4.652z"/><path d="M241.626 475.516c47.328-6.16 58.832 42.068 32.662 39.694-6.818-.62-8.652-7.478-12.672-11.758-10.72-11.408-48.728 2.556-30.226 21.042 10.026 10.016 31.742-1.804 49.464 17.166 25.096 26.86.682 67.006-33.554 65.014-17.132 1.21-44.436-13.966-43.736-31.678.304-7.674 7.512-12.496 14.85-11.88 8.24.692 9.876 9.632 14.486 14.734 8.658 9.578 33.55 5.144 33.144-11.054-.424-16.936-22.18-11.752-33.018-13.83-44.031-8.444-39.129-76.1 8.6-77.45"/><path d="m475.64 475.516 24.55.028c9.758-.074 29.074-1.468 26.75 14.046-3.088 20.612-47.916 4.342-60.868 13.948-6.182 4.584-6.078 14.6-1.32 20.17 10.1 11.82 48.858-3.43 46.344 18.398-2.246 19.486-32.022 3.54-45.19 14.944-12.692 10.99.16 24.854 16.33 25.04 9.636-.024 35.46-3.198 42.258 4.908 5.412 6.452 1.766 17.4-6.412 19.218-6.34 1.412-37.182.742-44.696.108-32.762-2.764-49.112-45.152-26.064-64.268-20.442-28.078-11.068-63.55 28.318-66.54"/><path d="M358.328 475.516c5.468-.356 11.15.048 16.65.026 13.872-.056 24.736-2.738 28.824 13.43-6.786 23.256-37.334 3.54-51.854 14.626-6.348 4.848-7.258 14.17-2.31 20.356 9.324 11.656 42.238-3.856 38.006 19.848-2.96 16.586-24.964 4.8-35.152 11.918-6.562 4.584-7.754 14.574-2.82 20.774 5.126 6.444 15.768 4.85 23.148 5.596 8.278.18 24.574-4.344 28.956 5.762 10.578 24.394-35.138 20.2-46.456 18.416-34.868-5.5-38.176-36.75-25.064-64.212-15.99-28.68-7.26-61.164 28.072-66.54"/><path fill="#BCDEF6" d="M833.304 330.668c1.818 3.24 20.784 8.444 26.392 9.324l-.016 91.41c0 13.67-2.56 45.772 2.116 57.57-.466 6.616-.91 28.514 0 35 3.56-3.032 5.672-3.084 10.2-3.11 18.326-.014 12.434 34.954 12.434 48.422l.018 165.912c-.002 32.426 6.842 80.43-37.49 87.974-11.762 2.002-23.672.914-35.514 1.026l-163.396.262c-16.766.016-33.938.774-50.66-.056-10.006-.496-15.002-5.202-13.7-15.59l-.514-.544c-3.862 2.986-2.526 13.208-7.832 12.19-3.626-.696-12.038-2.95-14.184-6.194-3.416-5.164 12.482-1.158 14.276-3.056-.336-.342-14.666-5.736-15.532 1.896q-.03.434-.092.866-.06.43-.152.856t-.212.844q-.122.418-.272.828-.15.408-.328.806-.178.396-.384.78t-.438.752-.488.72q-.258.352-.54.684t-.586.644q-.304.31-.628.6-.326.29-.67.556-.346.266-.708.506-.362.242-.74.458-.38.214-.772.402-.394.188-.798.348t-.82.292q-.416.13-.838.232-.424.102-.854.174-.428.072-.862.112-.434.042-.87.052-.434.012-.87-.008-.434-.02-.866-.07-.434-.05-.862-.13-.426-.082-.848-.192t-.834-.25q-.412-.138-.814-.308-.402-.168-.79-.364-.39-.196-.764-.418t-.73-.472q-.358-.248-.698-.52-.338-.274-.658-.57t-.616-.614q-.298-.318-.572-.656-.276-.338-.526-.694t-.474-.73q-.226-.372-.422-.76-.198-.388-.368-.788-.17-.402-.312-.814-.142-.41-.254-.832-.112-.42-.196-.848-.082-.428-.134-.86t-.074-.866q-.022-.436-.012-.87.008-.436.048-.87.038-.434.108-.862.07-.43.17-.854.098-.424.228-.84c-3.068-.944-15.504 2.584-23.696.792l-.484.246-.182.66c.078 15.372-14.234 14.262-25.602 14.246l-223.002-.004c-26.128.01-50.19-7.15-53.838-38.48-1.072-9.206-.968-53.942.032-62.31 1.074-8.96 12.916-13.81 19.65-7.288 6.784 6.57 4.742 27.602 4.704 37.008l347.42.002c10.856 0 69.676 1.71 77.732-2.64 2.654.538 5 .33 7.644 0 4.618 5.314 53.106 2.62 62.33 2.632l25.67.086c31.28.308 62.554-5.168 71.214-42.134 2.644-11.29 1.726-23.852 1.722-35.398l-.034-310.6c-.012-7.988-1.156-16.568-.114-24.464l.128-.918c2.892-2.714 4.818-5.684 6.3-9.324"/><path d="M871.996 520.862c18.326-.014 12.434 34.954 12.434 48.422l.018 165.912c-.002 32.426 6.842 80.43-37.49 87.974-11.762 2.002-23.672.914-35.514 1.026l-163.396.262c-16.766.016-33.938.774-50.66-.056-10.006-.496-15.002-5.202-13.7-15.59 7.966-15.378 34.762-8.69 52.224-8.684l174.334.034c14.268-.002 42.9 4.09 48.328-13.454 2.406-7.774 1.112-38.392 1.112-48.086l-.03-181.578c-.014-10.018-1.946-22.922 1.874-32.43l.266-.642c3.56-3.032 5.672-3.084 10.2-3.11"/><path d="M511.348 810.254c.078 15.372-14.234 14.262-25.602 14.246l-223.002-.004c-26.128.01-50.19-7.15-53.838-38.48-1.072-9.206-.968-53.942.032-62.31 1.074-8.96 12.916-13.81 19.65-7.288 6.784 6.57 4.742 27.602 4.704 37.008-.13 38.418-6.928 47.018 38.86 46.75l184.43-.018c15.04-.004 48.966-6.448 54.382 9.034z"/><path d="M535.71 808.556q.084-.27.18-.534.096-.266.202-.526.108-.26.228-.516.12-.254.25-.504.132-.25.274-.494.142-.242.294-.48.154-.236.318-.466.162-.228.336-.45t.358-.436.378-.418q.192-.206.396-.402.202-.196.412-.382.212-.188.432-.364.218-.178.446-.344t.462-.322.476-.302.49-.28q.246-.134.5-.256.254-.124.514-.234.258-.112.522-.212.264-.098.532-.186.268-.086.54-.162.272-.074.546-.138.274-.062.552-.112t.556-.086q.28-.038.562-.062.28-.024.562-.036t.562-.012q.282.002.564.016t.562.04q.28.028.56.066.278.04.556.092.276.052.552.116.274.066.544.142.272.078.54.166.266.09.53.192.262.1.52.214.258.112.512.238.252.124.498.26.248.136.488.284t.474.306q.232.158.458.326t.444.346q.218.18.428.368t.412.386q.2.196.392.404.192.206.374.422.182.214.354.438.172.222.334.454.162.23.314.468.15.238.29.482t.27.496q.128.25.246.506t.224.518q.104.26.198.526t.176.536.15.544q.07.272.126.548t.1.554q.044.28.076.56t.05.56q.018.282.024.564t-.002.564q-.006.28-.026.562-.03.434-.092.866-.06.43-.152.856t-.212.844q-.122.418-.272.828-.15.408-.328.806-.178.396-.384.78t-.438.752-.488.72q-.258.352-.54.684t-.586.644q-.304.31-.628.6-.326.29-.67.556-.346.266-.708.506-.362.242-.74.458-.38.214-.772.402-.394.188-.798.348t-.82.292q-.416.13-.838.232-.424.102-.854.174-.428.072-.862.112-.434.042-.87.052-.434.012-.87-.008-.434-.02-.866-.07-.434-.05-.862-.13-.426-.082-.848-.192t-.834-.25q-.412-.138-.814-.308-.402-.168-.79-.364-.39-.196-.764-.418t-.73-.472q-.358-.248-.698-.52-.338-.274-.658-.57t-.616-.614q-.298-.318-.572-.656-.276-.338-.526-.694t-.474-.73q-.226-.372-.422-.76-.198-.388-.368-.788-.17-.402-.312-.814-.142-.41-.254-.832-.112-.42-.196-.848-.082-.428-.134-.86t-.074-.866q-.022-.436-.012-.87.008-.436.048-.87.038-.434.108-.862.07-.43.17-.854.098-.424.228-.84"/><path fill="#BCDEF6" d="m233.292 283.072.03 53.748c.006 7.724.928 16.714-.198 24.318-1.416 9.56-12.284 14.212-19.99 7.558-6.792-5.864-4.176-23.516-4.156-31.538l.026-75.298c-.006-8.688-.616-17.818.982-26.384 8.474-45.455 54.822-38.252 88.54-38.373 16.422-.06 43.026-7.142 43.426 14.425 8.104-.01 23.112 1.316 30.324.33l.544-1.832c-.872-21.406 47.626-12.944 63.934-12.94l396.268-.053c22.924.12 45.522 13.775 50.17 37.397 2.058 10.46 1.228 22.212 1.228 32.872l-.008 47.83c-.018 54.11.698 108.314.026 162.41-.188 15.142-12.148 22.002-22.642 11.43-4.676-11.798-2.116-43.9-2.116-57.57l.016-91.41v-31.926c-10.426-15.998-8.448-20.19-31.626-24.994-8.964 4.16-25.09 2.134-34.814 2.138l-42.964.004c-10.278 0-46.504 1.216-53.87-.872-7.37-2.09-8.1-10.198-6.546-16.432-2.116-.744-23.268-.27-26.652 0 3.864 24.27-25.514 17.31-41.828 17.326-12.702.014-29.616 3.258-40.954-3.218-20.06.776-39.872 1.058-59.968 1.06z"/><path d="M372.82 210.026c-.872-21.406 47.626-12.944 63.934-12.94l396.268-.053c22.924.12 45.522 13.775 50.17 37.397 2.058 10.46 1.228 22.212 1.228 32.872l-.008 47.83c-.018 54.11.698 108.314.026 162.41-.188 15.142-12.148 22.002-22.642 11.43-4.676-11.798-2.116-43.9-2.116-57.57l.016-91.41v-31.926c-10.426-15.998-8.448-20.19-31.626-24.994 8.754-6.666 6.912-18.044-3.516-22.394l.324-.19c.35-.924-.33-34.682-.324-38.704-5.084.136-10.124.252-15.208 0l-405.928-.032c-11.168.084-29.242 3.938-30.598-11.726"/><path fill="#2BC0F3" d="M809.346 221.784c52.788-.222 50.17 4.414 50.326 49.832.042 11.99 1.216 24.522.024 36.45-10.426-15.998-8.448-20.19-31.626-24.994 8.754-6.666 6.912-18.044-3.516-22.394l.324-.19c.35-.924-.33-34.682-.324-38.704-5.084.136-10.124.252-15.208 0"/><path d="m233.292 283.072.03 53.748c.006 7.724.928 16.714-.198 24.318-1.416 9.56-12.284 14.212-19.99 7.558-6.792-5.864-4.176-23.516-4.156-31.538l.026-75.298c-.006-8.688-.616-17.818.982-26.384 8.474-45.455 54.822-38.252 88.54-38.373 16.422-.06 43.026-7.142 43.426 14.425-4.808 12.364-13.172 10.342-24.678 10.274-12.392-.072-61.424-1.572-70.316 2.176-19.938 8.4-13.624 41.484-13.666 59.094"/><path d="M689.876 267.91c5.59-9.496 14.71-7.26 24.184-7.256l28.144.01c27.384.008 54.992-.746 82.35.014 10.428 4.35 12.27 15.728 3.516 22.394-8.964 4.16-25.09 2.134-34.814 2.138l-42.964.004c-10.278 0-46.504 1.216-53.87-.872-7.37-2.09-8.1-10.198-6.546-16.432"/><path d="M580.442 282.018c-3.86-6.1-4.246-14.914 2.612-19.058 6.98-4.218 67.102-3.27 72.884-1.618 3.508 1.004 5.55 3.526 7.286 6.568 3.864 24.27-25.514 17.31-41.828 17.326-12.702.014-29.616 3.258-40.954-3.218"/><path d="M330.256 250.458c7.06-.066 16.446-1.236 23.214.774 13.512 4.01 9.122 19.51-1.106 24.28-5.628.662-20.354.868-25.262-1.05-13.304-5.198-8.45-20.3 3.154-24.004"/><path d="M274.112 250.458c10.384-.394 35.108-3.31 30.196 14.908-1.276 4.732-4.416 7.828-8.58 10.146-31.43 4.856-40.72-17.588-21.616-25.054"/><path d="M827.004 339.992c-13.818 1.642-28.752-.016-42.698-.014l-158.79.028c-9.002 0-37.522 2.756-43.964-3.548-4.59-4.492-4.682-12.88.142-17.27 7.626-6.938 29.504-3.786 39.086-3.756l163.874.03c14.952.066 50.286-6.83 48.65 15.206-1.482 3.64-3.408 6.61-6.3 9.324"/><path d="M526.17 288.614c6.97-.06 17.248-1.408 23.652 1.666 11.758 5.646 6.274 20.042-4.654 22.822-7.468.08-19.258 1.766-25.54-2.568-10.07-6.946-3.994-20.234 6.542-21.92"/></svg>